# xmcd
#
# Track frame offsets:
#	150
#	5442
#	23828
#	40242
#	52490
#	70260
#	91636
#	128734
#	152427
#	170044
#	193032
#	220042
#	241405
#	254012
#	272499
#	287071
#
# Disc length: 4159 seconds
#
# Revision: 1
# Processed by: cddbd v1.5PL3 Copyright (c) Steve Scherf et al.
# Submitted via: audiograbber 1.82.01
#
DISCID=e2103d10
DTITLE=Elvis Costello - 2004-03-07 - VogueTheater,Vancouver - Disc 2
DYEAR=1900
DGENRE=
TTITLE0=Elvis Costello - One Minute, Ten of Applause
TTITLE1=Elvis Costello - Either Side of the Same Town
TTITLE2=Elvis Costello - When It Sings
TTITLE3=Elvis Costello - Still
TTITLE4=Elvis Costello - Can You Be True
TTITLE5=Elvis Costello - God Give Me Strength
TTITLE6=Elvis Costello - Deep Dark Truthful Mirror
TTITLE7=Elvis Costello - The Delivery Man
TTITLE8=Elvis Costello - Country Darkness
TTITLE9=Elvis Costello - Needle Time
TTITLE10=Elvis Costello - Almost Blue
TTITLE11=Elvis Costello - Let Me Tell You About Her
TTITLE12=Elvis Costello - The Scarlet Tide
TTITLE13=Elvis Costello - You'll Never Walk Alone
TTITLE14=Elvis Costello - Pump It Up
TTITLE15=Elvis Costello - Dark End Of The Street
EXTD=
EXTT0=
EXTT1=
EXTT2=
EXTT3=
EXTT4=
EXTT5=
EXTT6=
EXTT7=
EXTT8=
EXTT9=
EXTT10=
EXTT11=
EXTT12=
EXTT13=
EXTT14=
EXTT15=
PLAYORDER=
